<!DOCTYPE svg PUBLIC "-//W3C//DTD SVG 1.1//EN" "http://www.w3.org/Graphics/SVG/1.1/DTD/svg11.dtd">
<!-- Uploaded to: SVG Repo, www.svgrepo.com, Transformed by: SVG Repo Mixer Tools -->
<svg fill="#FFE100" version="1.1" id="_x31_" xmlns="http://www.w3.org/2000/svg" xmlns:xlink="http://www.w3.org/1999/xlink" viewBox="-12.8 -12.8 153.60 153.60" xml:space="preserve" width="256px" height="256px" stroke="#FFE100" transform="rotate(0)">
<g id="SVGRepo_bgCarrier" stroke-width="0"/>
<g id="SVGRepo_tracerCarrier" stroke-linecap="round" stroke-linejoin="round" stroke="#000000" stroke-width="3.84"> <g> <polygon points="37.2,106.4 52.2,93 35,102.6 "/> <polygon points="24.8,96.8 26,100.9 43.8,91.6 "/> <polygon points="96.8,62 95.5,59.9 77.5,73.5 "/> <polygon points="107.3,95.5 107.8,93 85.3,90.8 "/> <polygon points="45.2,74 24.7,65.1 23.8,67.4 "/> <polygon points="96.8,107.1 98.5,104.1 71.8,90.3 "/> <polygon points="20.8,46.9 18.2,49.6 52,74.7 "/> <rect x="57.6" y="92.2" transform="matrix(0.9694 -0.2456 0.2456 0.9694 -21.7376 18.0755)" width="8" height="8"/> <rect x="70.3" y="96.4" transform="matrix(0.5118 -0.8591 0.8591 0.5118 -49.4554 110.8388)" width="5" height="5"/> <rect x="64.7" y="85.6" transform="matrix(0.5118 -0.8591 0.8591 0.5118 -42.5465 99.4183)" width="3.1" height="3.1"/> <polygon points="69.8,79.5 71.2,87.4 119,78.9 119,70.8 "/> <polygon points="7,78.9 55,87.4 56.5,79.5 7,70.8 "/> <path d="M65.9,51.2v12c0,2,1.5,3.5,3.5,3.5c2,0,3.5-1.5,3.5-3.5v-12c0-2-1.5-3.5-3.5-3.5C67.5,47.7,65.9,49.2,65.9,51.2z"/> <path d="M46.2,63.2c0,2,1.5,3.5,3.5,3.5c2,0,3.5-1.5,3.5-3.5v-8.5h-7V63.2z"/> <path d="M79.3,47.7c-2,0-3.5,1.5-3.5,3.5v8.5c0,2,1.5,3.5,3.5,3.5c2,0,3.5-1.5,3.5-3.5v-8.5C82.9,49.2,81.3,47.7,79.3,47.7z"/> <path d="M46.2,51.9h13.4c2,0,3.5-1.5,3.5-3.5c0-2-1.5-3.5-3.5-3.5h-7.7c-0.8,0-1.4-0.6-1.4-1.4c0-0.8,0.6-1.4,1.4-1.4 c8.5,0,15.5-7,15.5-15.5c0-0.8,0.6-1.4,1.4-1.4s1.4,0.6,1.4,1.4c0,6.7-3.6,12.5-8.9,15.7c1.5,0.4,2.7,1.3,3.6,2.6 c0,0,12.5,0,14.4,0c1.3,0,2.5,0.4,3.5,1.1V35.7c0-4.4-2.3-8.2-5.6-10.6V5.4H54.7v19.7L43.8,36.1c-0.6,0.6-1.1,1.5-1.1,2.5v9.9 C42.7,50.4,44.3,51.9,46.2,51.9z"/> <path d="M56.1,54.7v8.5c0,2,1.5,3.5,3.5,3.5c2,0,3.5-1.5,3.5-3.5v-9.5c-1,0.7-2.3,1.1-3.5,1.1H56.1z"/> </g> </g>
<g id="SVGRepo_iconCarrier"> <g> <polygon points="37.2,106.4 52.2,93 35,102.6 "/> <polygon points="24.8,96.8 26,100.9 43.8,91.6 "/> <polygon points="96.8,62 95.5,59.9 77.5,73.5 "/> <polygon points="107.3,95.5 107.8,93 85.3,90.8 "/> <polygon points="45.2,74 24.7,65.1 23.8,67.4 "/> <polygon points="96.8,107.1 98.5,104.1 71.8,90.3 "/> <polygon points="20.8,46.9 18.2,49.6 52,74.7 "/> <rect x="57.6" y="92.2" transform="matrix(0.9694 -0.2456 0.2456 0.9694 -21.7376 18.0755)" width="8" height="8"/> <rect x="70.3" y="96.4" transform="matrix(0.5118 -0.8591 0.8591 0.5118 -49.4554 110.8388)" width="5" height="5"/> <rect x="64.7" y="85.6" transform="matrix(0.5118 -0.8591 0.8591 0.5118 -42.5465 99.4183)" width="3.1" height="3.1"/> <polygon points="69.8,79.5 71.2,87.4 119,78.9 119,70.8 "/> <polygon points="7,78.9 55,87.4 56.5,79.5 7,70.8 "/> <path d="M65.9,51.2v12c0,2,1.5,3.5,3.5,3.5c2,0,3.5-1.5,3.5-3.5v-12c0-2-1.5-3.5-3.5-3.5C67.5,47.7,65.9,49.2,65.9,51.2z"/> <path d="M46.2,63.2c0,2,1.5,3.5,3.5,3.5c2,0,3.5-1.5,3.5-3.5v-8.5h-7V63.2z"/> <path d="M79.3,47.7c-2,0-3.5,1.5-3.5,3.5v8.5c0,2,1.5,3.5,3.5,3.5c2,0,3.5-1.5,3.5-3.5v-8.5C82.9,49.2,81.3,47.7,79.3,47.7z"/> <path d="M46.2,51.9h13.4c2,0,3.5-1.5,3.5-3.5c0-2-1.5-3.5-3.5-3.5h-7.7c-0.8,0-1.4-0.6-1.4-1.4c0-0.8,0.6-1.4,1.4-1.4 c8.5,0,15.5-7,15.5-15.5c0-0.8,0.6-1.4,1.4-1.4s1.4,0.6,1.4,1.4c0,6.7-3.6,12.5-8.9,15.7c1.5,0.4,2.7,1.3,3.6,2.6 c0,0,12.5,0,14.4,0c1.3,0,2.5,0.4,3.5,1.1V35.7c0-4.4-2.3-8.2-5.6-10.6V5.4H54.7v19.7L43.8,36.1c-0.6,0.6-1.1,1.5-1.1,2.5v9.9 C42.7,50.4,44.3,51.9,46.2,51.9z"/> <path d="M56.1,54.7v8.5c0,2,1.5,3.5,3.5,3.5c2,0,3.5-1.5,3.5-3.5v-9.5c-1,0.7-2.3,1.1-3.5,1.1H56.1z"/> </g> </g>
</svg>